Coordinates
version=1
nRows=9
nColumns=63
inDegrees=yes

Units are S.I. units (second, meters, Newtons, ...)
If the header above contains a line with 'inDegrees', this indicates whether rotational values are in degrees (yes) or radians (no).

endheader
time	pelvis_tilt	pelvis_list	pelvis_rotation	pelvis_tx	pelvis_ty	pelvis_tz	hip_flexion_r	hip_adduction_r	hip_rotation_r	knee_angle_r	knee_angle_r_beta	ankle_angle_r	subtalar_angle_r	mtp_angle_r	hip_flexion_l	hip_adduction_l	hip_rotation_l	knee_angle_l	knee_angle_l_beta	ankle_angle_l	subtalar_angle_l	mtp_angle_l	L5_S1_Flex_Ext	L5_S1_Lat_Bending	L5_S1_axial_rotation	L4_L5_Flex_Ext	L4_L5_Lat_Bending	L4_L5_axial_rotation	L3_L4_Flex_Ext	L3_L4_Lat_Bending	L3_L4_axial_rotation	L2_L3_Flex_Ext	L2_L3_Lat_Bending	L2_L3_axial_rotation	L1_L2_Flex_Ext	L1_L2_Lat_Bending	L1_L2_axial_rotation	L1_T12_Flex_Ext	L1_T12_Lat_Bending	L1_T12_axial_rotation	Abs_r3	Abs_r2	Abs_r1	Abs_t1	Abs_t2	neck_flexion	neck_bending	neck_rotation	arm_flex_r	arm_add_r	arm_rot_r	elbow_flex_r	pro_sup_r	wrist_flex_r	wrist_dev_r	arm_flex_l	arm_add_l	arm_rot_l	elbow_flex_l	pro_sup_l	wrist_flex_l	wrist_dev_l
     15.46666667	     -1.32899552	     -0.37619310	    -27.03318810	     -1.74694393	      0.85569467	      0.30074172	    -10.15278700	     -2.13817256	     18.18939197	      7.50138050	      0.13092379	     11.06560861	    -12.71094117	      0.00000000	     24.84937843	    -14.67879795	    -20.34834489	     27.31495192	      0.47673585	      2.36334859	    -18.88172432	      0.00000000	     -0.03639085	     -0.25002098	      5.13134982	     -0.06758144	     -0.33252790	      5.45205918	     -0.05978652	     -0.60790100	      5.45205918	     -0.04159110	     -0.60790100	      4.48993109	     -0.03379254	     -0.50984277	      4.16922173	     -0.02079373	     -0.38728249	      3.84851236	     -0.25993619	     -2.82828728	     28.53902829	      0.00000000	      0.00000000	      0.00000000	      0.00000000	      0.00000000	     -6.80118889	     -5.94055052	     11.58002843	     25.65928691	     27.60756415	      0.00000000	      5.00000014	    -12.01579920	      8.40278944	    -53.73371402	     44.01910229	     28.48170481	      0.00000000	      5.00000014
     15.50000000	     -1.33423015	     -0.37666843	    -26.99958183	     -1.74696475	      0.85568457	      0.30071175	    -10.14213553	     -2.12781178	     18.11969621	      7.51739551	      0.13120330	     11.07499572	    -12.68915000	      0.00000000	     24.86807399	    -14.66758553	    -20.29655587	     27.31114705	      0.47666944	      2.34190927	    -18.87827845	      0.00000000	     -0.03635945	     -0.25007725	      5.12708353	     -0.06752314	     -0.33260274	      5.44752625	     -0.05973494	     -0.60803783	      5.44752625	     -0.04155522	     -0.60803783	      4.48619809	     -0.03376339	     -0.50995753	      4.16575537	     -0.02077579	     -0.38736966	      3.84531265	     -0.25971192	     -2.82892388	     28.51530048	      0.00000000	      0.00000000	      0.00000000	      0.00000000	      0.00000000	     -6.78859234	     -5.92632372	     11.51137777	     25.62432463	     27.83756319	      0.00000000	      5.00000014	    -11.98318533	      8.44261279	    -53.95166348	     44.06841877	     28.76035794	      0.00000000	      5.00000014
     15.53333333	     -1.33303584	     -0.38220211	    -27.04800224	     -1.74698092	      0.85568953	      0.30074795	    -10.13280437	     -2.13158628	     18.19760199	      7.52732443	      0.13137660	     11.05654785	    -12.71409438	      0.00000000	     24.84568762	    -14.69011610	    -20.34198727	     27.30677423	      0.47659312	      2.36128532	    -18.88204609	      0.00000000	     -0.03604131	     -0.24934451	      5.13663071	     -0.06693231	     -0.33162820	      5.45767013	     -0.05921226	     -0.60625625	      5.45767013	     -0.04119161	     -0.60625625	      4.49455187	     -0.03346796	     -0.50846333	      4.17351245	     -0.02059400	     -0.38623465	      3.85247304	     -0.25743945	     -2.82063499	     28.56839904	      0.00000000	      0.00000000	      0.00000000	      0.00000000	      0.00000000	     -6.81280561	     -5.94444861	     11.63116043	     25.71177994	     26.84229300	      0.00000000	      5.00000014	    -11.99875606	      8.42098175	    -53.77304782	     44.04022762	     27.80731494	      0.00000000	      5.00000014
     15.56666667	     -1.34925286	     -0.38331975	    -26.95691372	     -1.74689936	      0.85570396	      0.30062749	    -10.06410951	     -2.15110588	     17.31359674	      7.62883827	      0.13314835	     11.43891279	    -11.55455274	      0.00000000	     24.86716994	    -14.62994072	    -20.16843039	     27.24524459	      0.47551922	      2.27485662	    -18.93510579	      0.00000000	     -0.03362898	     -0.24786308	      5.11989597	     -0.06245238	     -0.32965789	      5.43988947	     -0.05524906	     -0.60265429	      5.43988947	     -0.03843456	     -0.60265429	      4.47990897	     -0.03122787	     -0.50544239	      4.15991548	     -0.01921560	     -0.38393991	      3.83992198	     -0.24020846	     -2.80387670	     28.47532541	      0.00000000	      0.00000000	      0.00000000	      0.00000000	      0.00000000	     -6.83608700	     -5.92838871	     11.38585406	     25.64844311	     27.59265226	      0.00000000	      5.00000014	    -11.98513680	      8.38765465	    -53.82100647	     43.88890923	     28.52518857	      0.00000000	      5.00000014
     15.60000000	     -1.33156089	     -0.38028402	    -27.05484990	     -1.74699459	      0.85568833	      0.30075226	    -10.12583542	     -2.13422859	     18.19400834	      7.53907447	      0.13158167	     11.06984062	    -12.69313670	      0.00000000	     24.83965067	    -14.68803565	    -20.34554143	     27.29852088	      0.47644907	      2.35627081	    -18.88965118	      0.00000000	     -0.03624475	     -0.24943063	      5.13745303	     -0.06731013	     -0.33174274	      5.45854384	     -0.05954650	     -0.60646563	      5.45854384	     -0.04142413	     -0.60646563	      4.49527140	     -0.03365688	     -0.50863894	      4.17418059	     -0.02071025	     -0.38636804	      3.85308977	     -0.25889264	     -2.82160915	     28.57297251	      0.00000000	      0.00000000	      0.00000000	      0.00000000	      0.00000000	     -6.81845022	     -5.91315053	     11.32859190	     25.68740735	     27.91502865	      0.00000000	      5.00000014	    -11.98802805	      8.43804793	    -53.92214124	     44.03297385	     28.92277810	      0.00000000	      5.00000014
     15.63333333	     -1.36376385	     -0.44734240	    -26.94034414	     -1.74694550	      0.85573240	      0.30053997	    -10.05224688	     -2.20312963	     15.58211957	      7.62219897	      0.13303247	     12.21171590	     -8.77789259	      0.00000000	     24.90177913	    -14.68365389	    -20.08406720	     27.29491593	      0.47638615	      2.21130248	    -18.97159874	      0.00000000	     -0.03507154	     -0.23900241	      5.11894615	     -0.06513135	     -0.31787321	      5.43888029	     -0.05761903	     -0.58111047	      5.43888029	     -0.04008326	     -0.58111047	      4.47907789	     -0.03256743	     -0.48737372	      4.15914375	     -0.02003988	     -0.37021474	      3.83920962	     -0.25051247	     -2.70364309	     28.47004283	      0.00000000	      0.00000000	      0.00000000	      0.00000000	      0.00000000	     -6.84085551	     -5.92076592	     10.87999099	     25.67085271	     29.91755442	      0.00000000	      5.00000014	    -11.94329919	      8.43958133	    -54.09042268	     43.80277456	     30.82973389	      0.00000000	      5.00000014
     15.66666667	     -1.33373182	     -0.37106132	    -27.06986621	     -1.74700089	      0.85567723	      0.30078636	    -10.11347295	     -2.14168324	     18.21068663	      7.55113715	      0.13179221	     11.06715182	    -12.70093148	      0.00000000	     24.83857108	    -14.69466111	    -20.39310620	     27.29484026	      0.47638483	      2.35738821	    -18.87798207	      0.00000000	     -0.03581129	     -0.25077933	      5.13964266	     -0.06650514	     -0.33353651	      5.46087032	     -0.05883436	     -0.60974487	      5.46087032	     -0.04092872	     -0.60974487	      4.49718732	     -0.03325436	     -0.51138922	      4.17595966	     -0.02046257	     -0.38845719	      3.85473199	     -0.25579643	     -2.83686598	     28.58515056	      0.00000000	      0.00000000	      0.00000000	      0.00000000	      0.00000000	     -6.81814113	     -5.90334043	     11.23389708	     25.68347364	     28.76635826	      0.00000000	      5.00000014	    -11.98571796	      8.43259201	    -54.02416359	     44.01295759	     29.81509053	      0.00000000	      5.00000014
     15.70000000	     -1.33033073	     -0.36603650	    -27.04658397	     -1.74696540	      0.85566610	      0.30077645	    -10.12802590	     -2.14646664	     18.23590204	      7.53305528	      0.13147662	     11.08115979	    -12.72207466	      0.00000000	     24.85653156	    -14.68061427	    -20.35028982	     27.33480403	      0.47708233	      2.40046926	    -18.88270344	      0.00000000	     -0.03518817	     -0.25155885	      5.13510839	     -0.06534795	     -0.33457327	      5.45605267	     -0.05781065	     -0.61164019	      5.45605267	     -0.04021656	     -0.61164019	      4.49321984	     -0.03267574	     -0.51297881	      4.17227557	     -0.02010652	     -0.38966466	      3.85133129	     -0.25134558	     -2.84568403	     28.55993234	      0.00000000	      0.00000000	      0.00000000	      0.00000000	      0.00000000	     -6.83603277	     -5.89297181	     11.15893539	     25.72119680	     28.52771069	      0.00000000	      5.00000014	    -11.98226893	      8.43235175	    -53.99243015	     44.00945438	     29.57821906	      0.00000000	      5.00000014
     15.73333333	     -1.32894685	     -0.41212754	    -27.16802186	     -1.74706230	      0.85570131	      0.30077789	    -10.01611227	     -2.16053247	     17.39925587	      7.72755783	      0.13487133	     11.51270451	    -11.42771137	      0.00000000	     24.79480697	    -14.79263475	    -20.63505244	     27.32648219	      0.47693709	      2.44824100	    -18.79906347	      0.00000000	     -0.03841744	     -0.24480033	      5.15659600	     -0.07134503	     -0.32558444	      5.47888325	     -0.06311601	     -0.59520753	      5.47888325	     -0.04390729	     -0.59520753	      4.51202150	     -0.03567443	     -0.49919684	      4.18973425	     -0.02195172	     -0.37919571	      3.86744700	     -0.27441192	     -2.76923031	     28.67943998	      0.00000000	      0.00000000	      0.00000000	      0.00000000	      0.00000000	     -6.85117423	     -5.93652510	     10.98788101	     25.75669378	     29.06699237	      0.00000000	      5.00000014	    -11.98297815	      8.45727184	    -54.03237108	     43.96810902	     30.09451043	      0.00000000	      5.00000014
